<?xml version="1.0" encoding="iso-8859-1"?>
<!-- Generator: Adobe Illustrator 19.0.0, SVG Export Plug-In . SVG Version: 6.00 Build 0)  -->
<svg version="1.1" id="Layer_1" xmlns="http://www.w3.org/2000/svg" xmlns:xlink="http://www.w3.org/1999/xlink" x="0px" y="0px"
	 viewBox="0 0 511.998 511.998" style="enable-background:new 0 0 511.998 511.998;" xml:space="preserve">
<g transform="translate(0 1)">
	<g>
		<g>
			<path d="M337.364,42.651l-23.108-23.108l-2.078-4.149C307.162,5.351,296.885-1,285.647-1h-59.196
				c-11.247,0-21.526,6.36-26.546,16.424l-2.064,4.134l-23.094,23.094c-60.549,18.454-82.264,35.782-80.784,50.952
				c0.708,3.903,2.88,6.382,5.805,7.357c5.908,1.97,11.48,11.981,15.24,27.617c1.719,7.15,2.944,14.888,3.748,22.638
				c0.282,2.72,0.49,5.242,0.636,7.498c0.086,1.331,0.132,2.261,0.148,2.72l-0.005,341.032c0,4.713,3.82,8.533,8.533,8.533h255.974
				c4.713,0,8.533-3.82,8.533-8.533V161.132c0.011-0.158,0.056-1.088,0.142-2.419c0.146-2.255,0.354-4.778,0.636-7.498
				c0.803-7.749,2.029-15.487,3.748-22.638c3.759-15.636,9.331-25.647,15.24-27.617c2.926-0.976,5.097-3.454,5.68-6.483
				C419.628,78.433,397.913,61.106,337.364,42.651z M226.451,16.067h59.196c4.773,0,9.137,2.697,11.267,6.961l0.863,1.723
				l-4.791,10.379c-14.538,31.51-59.32,31.516-73.856,0.01l-2.294-4.967l-2.505-5.434l0.846-1.695
				C217.309,18.768,221.674,16.067,226.451,16.067z M380.509,124.588c-1.915,7.965-3.254,16.422-4.13,24.867
				c-0.306,2.948-0.532,5.689-0.692,8.157c-0.097,1.503-0.151,2.598-0.173,3.218l-0.005,333.101H136.602v-332.8
				c-0.027-0.921-0.081-2.016-0.178-3.519c-0.159-2.468-0.386-5.209-0.692-8.157c-0.875-8.445-2.215-16.902-4.13-24.867
				c-3.871-16.101-9.48-28.307-17.93-35.133c0.928-0.943,2.09-1.982,3.517-3.108c10.813-8.537,31.552-18.054,64.537-27.977
				c1.35-0.406,2.579-1.141,3.576-2.138l16.943-16.943l1.393,3.022c20.649,44.723,84.212,44.723,104.85,0.003l1.39-3.011
				l16.93,16.93c0.997,0.997,2.225,1.731,3.576,2.138c32.984,9.923,53.724,19.44,64.537,27.977c1.427,1.127,2.589,2.165,3.517,3.108
				C389.989,96.281,384.38,108.487,380.509,124.588z"/>
			<path d="M230.443,169.665c4.713,0,8.533-3.82,8.533-8.533s-3.82-8.533-8.533-8.533H196.31c-4.713,0-8.533,3.82-8.533,8.533
				v34.133c0,4.713,3.82,8.533,8.533,8.533h8.533c9.427,0,17.067,7.64,17.067,17.067c0,9.427-7.64,17.067-17.067,17.067
				c-1.972,0-3.897-0.334-5.723-0.98c-4.443-1.571-9.319,0.758-10.89,5.201s0.758,9.319,5.201,10.89
				c3.642,1.288,7.49,1.956,11.412,1.956c18.853,0,34.133-15.281,34.133-34.133c0-18.853-15.281-34.133-34.133-34.133v-17.067
				H230.443z"/>
			<path d="M290.176,152.598c-20.012,0-34.133,23.538-34.133,51.2c0,27.662,14.121,51.2,34.133,51.2s34.133-23.538,34.133-51.2
				C324.31,176.136,310.188,152.598,290.176,152.598z M290.176,237.932c-8.265,0-17.067-14.67-17.067-34.133
				c0-19.463,8.801-34.133,17.067-34.133s17.067,14.67,17.067,34.133C307.243,223.261,298.442,237.932,290.176,237.932z"/>
		</g>
	</g>
</g>
<g>
</g>
<g>
</g>
<g>
</g>
<g>
</g>
<g>
</g>
<g>
</g>
<g>
</g>
<g>
</g>
<g>
</g>
<g>
</g>
<g>
</g>
<g>
</g>
<g>
</g>
<g>
</g>
<g>
</g>
</svg>
