<?xml version="1.0" encoding="iso-8859-1"?>
<!-- Generator: Adobe Illustrator 18.0.0, SVG Export Plug-In . SVG Version: 6.00 Build 0)  -->
<!DOCTYPE svg PUBLIC "-//W3C//DTD SVG 1.1//EN" "http://www.w3.org/Graphics/SVG/1.1/DTD/svg11.dtd">
<svg version="1.1" id="Capa_1" xmlns="http://www.w3.org/2000/svg" xmlns:xlink="http://www.w3.org/1999/xlink" x="0px" y="0px"
	 viewBox="0 0 257.006 257.006" style="enable-background:new 0 0 257.006 257.006;" xml:space="preserve">
<g>
	<path d="M201.962,103.071c0.929-0.384,1.165-1.95,0.196-2.65c-26.46-19.135-19.987-69.349-16.94-97.606
		c0.214-1.984-2.3-2.837-3.735-2.012c-0.409-0.413-1.008-0.652-1.816-0.552c-10.963,1.354-22.042,1.947-33.076,2.372
		c-0.762,0.029-1.221,0.402-1.527,0.874c-0.73,0.37-1.328,1.036-1.435,2.055c-1.205,11.405-8.037,25.34-21.792,23.664
		c-11.307-1.378-14.762-12.253-16.4-22.125c-0.009-0.025,0-0.055-0.013-0.079c-0.133-0.807-0.277-1.623-0.389-2.411
		c1.901-1.311,0.489-5.043-2.347-4.557C92.663,1.762,82.857,1.687,72.767,1.723c-1.502-1.015-3.965-0.407-4,1.98
		c-0.275,18.473-0.381,36.699-2.832,55.056c-2.277,17.061-10.933,28.161-16.746,43.487c-0.169,0.444,0.013,0.754,0.292,0.96
		c-0.087,0.197-0.245,0.323-0.257,0.587c-2.401,48.3-0.935,98.673,1.423,146.992c0.052,1.073,0.712,1.611,1.469,1.885
		c-0.251,1.055,0.245,2.278,1.701,2.37c49.17,3.105,99.552,1.886,148.806,0.718c2.054-0.049,2.854-1.913,2.452-3.427
		c0.416-0.348,0.721-0.862,0.793-1.537C210.988,203.033,209.965,150.506,201.962,103.071z M190.842,99.521
		c0.324-0.897,0.655-1.778,0.967-2.665c1.965,2.049,4.268,3.827,7.069,5.181c-0.161,0.242-0.339,0.479-0.33,0.821
		c0.026,1.065,0.052,2.123,0.078,3.188c-3.397-1.174-6.373-3.216-8.993-5.831C190.105,100.29,190.629,100.112,190.842,99.521z
		 M189.951,94.613c-0.449,1.42-0.807,2.87-1.168,4.34c-0.039,0.158,0.038,0.26,0.056,0.393c-2.505-2.693-4.647-5.942-6.496-9.47
		c1.365-0.963,2.397-2.242,2.917-4.007C186.499,89.015,187.958,92.016,189.951,94.613z M184.687,84.475
		c-0.475-0.226-1.078-0.163-1.387,0.413c-0.574,1.074-1.248,1.951-2.04,2.711c-2-4.226-3.515-8.757-4.792-13.237
		c1.471-0.655,2.777-1.568,3.861-2.936c0.8-1.009-0.438-2.325-1.437-1.437c-0.989,0.88-1.988,1.618-3.05,2.247
		c-0.902-3.422-1.61-6.743-2.171-9.844c2.667-0.531,4.818-1.99,5.796-4.499c0.482,4.323,0.993,8.645,1.755,12.937
		C182.05,75.48,183.126,80.127,184.687,84.475z M172.566,17.006c1.97,1.203,4.316,1.584,6.322,0.575
		c-0.257,3.286-0.465,6.575-0.578,9.868c-2.273,0.61-4.288,1.774-6.37,2.859C172.078,25.875,172.337,21.44,172.566,17.006z
		 M172.772,32.754c1.854-0.739,3.722-1.459,5.458-2.428c-0.087,4.232-0.095,8.464,0.072,12.694c-0.28-0.696-1.342-1.088-2.044-0.514
		c-1.386,1.133-2.739,2.037-4.353,2.664c-0.16-4.153-0.128-8.306-0.034-12.461C172.125,32.849,172.434,32.889,172.772,32.754z
		 M178.178,43.988c0.143-0.201,0.122-0.383,0.135-0.568c0.173,4.194,0.469,8.384,0.894,12.564c-0.506-0.278-1.194-0.243-1.586,0.355
		c-1.225,1.867-2.216,3.253-4.279,4.167c-0.269-1.633-0.506-3.211-0.679-4.645c-0.331-2.748-0.435-5.497-0.587-8.246
		C174.637,47.163,176.637,46.15,178.178,43.988z M179.666,5.418c0.204-0.027,0.357-0.12,0.536-0.182
		c-0.434,3.083-0.749,6.177-1.037,9.273c-0.057,0.018-0.108-0.01-0.165,0.016c-2.183,0.991-3.961,1.578-6.216,0.276
		c-0.038-0.022-0.075,0.002-0.113-0.014c0.152-2.9,0.274-5.797,0.409-8.698C175.274,5.879,177.462,5.711,179.666,5.418z
		 M148.49,6.676c1.457,0.095,2.901,0.111,4.351,0.159c0.149,3.74-0.312,7.377-1.271,10.785c-0.105-0.225-0.243-0.445-0.563-0.594
		c-1.407-0.654-2.881-1.05-4.37-1.409C147.62,12.731,148.262,9.709,148.49,6.676z M145.534,18.3
		c1.448,0.516,2.905,1.006,4.424,1.212c0.421,0.057,0.793-0.122,1.111-0.373c-1.073,3.181-2.567,6.152-4.593,8.7
		c-0.075-0.114-0.104-0.252-0.224-0.338c-1.441-1.029-2.791-2.047-4.076-3.153C143.524,22.502,144.599,20.439,145.534,18.3z
		 M140.622,26.263c1.294,1.326,2.739,2.462,4.53,3.178c-1.686,1.795-3.621,3.363-5.84,4.604c-1.559-0.948-3.143-1.826-4.72-2.719
		C136.875,30.002,138.871,28.26,140.622,26.263z M132.543,32.432c1.268,1.06,2.621,1.959,4.047,2.771
		c-2.508,1.036-5.199,1.835-8.263,2.082c-0.918,0.074-1.745-0.063-2.631-0.063c-0.242-1.029-0.488-2.053-0.779-3.071
		C127.663,33.979,130.243,33.451,132.543,32.432z M114.591,32.125c2.365,1.219,5.01,2.084,8.148,2.2
		c0.049,0.002,0.09-0.013,0.138-0.011c0.164,0.956,0.352,1.903,0.55,2.854c-3.211-0.231-6.128-1.066-8.87-2.188
		C114.653,34.025,114.643,33.074,114.591,32.125z M105.18,21.64c1.686,3.774,4.084,7.091,7.377,9.367
		c-0.158,1.039-0.223,2.083-0.151,3.133c-3.576-1.819-6.647-4.388-9.188-7.466C103.973,25.028,104.696,23.364,105.18,21.64z
		 M104.48,20.041c-0.474-0.176-1.022-0.098-1.286,0.472c-0.616,1.323-1.069,2.717-1.476,4.127c-1.925-2.75-3.437-5.844-4.541-9.155
		c2.009-0.896,3.846-2.126,5.388-3.66C102.914,14.644,103.494,17.433,104.48,20.041z M102.217,5.263
		c-0.038,0.945,0.123,1.917,0.153,2.877c-1.8,1.987-3.553,3.785-5.801,5.157c-0.614-2.295-1.098-4.649-1.285-7.103
		C97.605,5.954,99.92,5.639,102.217,5.263z M81.088,41.988c-2.165-0.279-4.338-0.276-6.516-0.205
		c0.267-4.651,0.33-9.245,0.315-13.772c1.963,0.161,3.947,0.244,5.848-0.066C80.958,32.623,81.168,37.305,81.088,41.988z
		 M80.67,25.358c-1.885-0.297-3.85-0.216-5.795-0.056c-0.041-3.14-0.142-6.203-0.265-9.202c1.756,0.512,3.536,0.924,5.344,1.236
		C80.179,20.012,80.513,22.678,80.67,25.358z M78.961,6.206c0.324,2.696,0.47,5.411,0.724,8.115
		c-1.724-0.325-3.453-0.552-5.191-0.688c-0.132-2.71-0.276-5.39-0.455-7.909C75.668,6.006,77.318,6.056,78.961,6.206z
		 M74.328,44.591c2.241,0.075,4.478,0.087,6.706-0.195c-0.114,3.782-0.312,7.563-0.685,11.34c-0.007,0.069-0.023,0.128-0.031,0.197
		c-2.289-0.539-4.638-0.75-6.993-0.904C73.797,51.572,74.075,48.078,74.328,44.591z M72.98,57.352
		c2.332,0.364,4.673,0.671,7.024,0.645c-0.597,4.6-1.5,8.911-2.774,12.914c-2.138-0.798-4.282-1.579-6.439-2.328
		C71.714,64.929,72.397,61.157,72.98,57.352z M70.296,70.49c2.07,0.843,4.152,1.652,6.242,2.446
		c-1.564,4.434-3.481,8.596-5.786,12.549c-1.638-0.852-3.211-1.644-4.778-2.522C67.759,79.036,69.115,74.813,70.296,70.49z
		 M64.778,85.544c1.322,1.198,3.001,1.959,4.735,2.028c-2.138,3.432-4.515,6.756-7.141,10.037c-1.277-0.767-2.544-1.49-3.766-2.304
		C60.979,92.315,63.013,89.032,64.778,85.544z M52.53,103.792c-0.07-0.639-0.423-1.021-0.849-1.276
		c1.892-1.561,3.594-3.297,5.205-5.114c1.084,1.023,2.268,1.918,3.576,2.512c-2.361,2.827-4.826,5.65-7.492,8.52
		C52.813,106.892,52.697,105.327,52.53,103.792z M54.964,251.131c0.031-0.138,0.152-0.193,0.16-0.348
		c2.423-45.46,2.542-93.704-1.866-139.299C67.026,100.837,75.2,88.142,79.847,74.157c0.137,0.046,0.27,0.105,0.406,0.15
		c1.11,0.362,1.914-1.447,0.81-1.92c-0.182-0.078-0.373-0.138-0.557-0.214c5.162-16.886,5.319-35.603,3.794-54.93
		c0.283-0.509,0.264-1.146-0.116-1.616c-0.25-2.99-0.533-5.993-0.848-9.007c3.028,0.085,6.065-0.006,9.094-0.231
		c-0.002,2.97,0.386,5.866,1.051,8.662c-0.334,0.515-0.171,1.201,0.355,1.432c4.238,15.111,17.777,26.541,34.814,25.445
		c17.756-1.142,31.279-17.649,28.917-34.988c4.553-0.001,9.095-0.27,13.643-0.658c-3.542,22.152-5.153,45.28,1.156,67.069
		c0.048,0.166,0.125,0.362,0.174,0.53c-0.361,0.472-0.139,1.149,0.447,1.353c1.403,4.577,3.191,9.6,5.614,14.473
		c-0.158,0.571,0.214,1.237,0.783,1.415c4.504,8.567,10.744,16.202,19.332,18.614c1.164,46.947,2.467,93.664,2.839,140.661
		C153.026,249.257,103.419,248.123,54.964,251.131z"/>
</g>
<g>
</g>
<g>
</g>
<g>
</g>
<g>
</g>
<g>
</g>
<g>
</g>
<g>
</g>
<g>
</g>
<g>
</g>
<g>
</g>
<g>
</g>
<g>
</g>
<g>
</g>
<g>
</g>
<g>
</g>
</svg>
